<svg width="187" height="50" viewBox="0 0 187 50" fill="none" xmlns="http://www.w3.org/2000/svg">
<rect width="14.0898" height="49.8322" rx="2" transform="matrix(0.999994 -0.0033625 0.00338519 0.999994 18.3167 0.106537)" fill="#111F50"/>
<rect width="14.2009" height="49.4805" rx="2" transform="matrix(0.499024 0.8666 -0.862038 0.506825 42.9769 6.56726)" fill="#111F50"/>
<rect width="14.2009" height="49.6749" rx="2" transform="matrix(0.493145 -0.869936 0.865449 0.501016 0.0634766 18.9143)" fill="#111F50"/>
<rect width="13.1505" height="1.89837" rx="0.949184" transform="matrix(0.999994 -0.0033625 0.00338519 0.999994 8.53577 24.3437)" fill="#F3F3FB"/>
<rect width="10.6719" height="1.8798" rx="0.939898" transform="matrix(0.236264 -0.971684 0.970518 0.24105 19.6631 25.8802)" fill="#F3F3FB"/>
<rect width="18.9759" height="1.87942" rx="0.939712" transform="matrix(0.200694 0.979659 -0.978827 0.20467 23.6549 15.732)" fill="#F3F3FB"/>
<rect width="14.8079" height="1.8798" rx="0.939898" transform="matrix(0.236264 -0.971684 0.970518 0.24105 25.2419 34.1741)" fill="#F3F3FB"/>
<rect width="12.2111" height="1.89837" rx="0.949184" transform="matrix(0.999994 -0.0033625 0.00338519 0.999994 29.6703 24.2726)" fill="#F3F3FB"/>
<rect width="6.0261" height="1.87972" rx="0.939858" transform="matrix(0.234441 0.972135 -0.971007 0.239028 30.2029 19.9924)" fill="#F3F3FB"/>
<path opacity="0.65" d="M68.234 4.50115C69.07 4.50115 69.7923 4.65882 70.401 4.97415C71.017 5.28215 71.4863 5.72582 71.809 6.30515C72.139 6.88448 72.304 7.56648 72.304 8.35115C72.304 9.13582 72.139 9.81782 71.809 10.3972C71.4863 10.9692 71.017 11.4092 70.401 11.7172C69.7923 12.0178 69.07 12.1682 68.234 12.1682H65.847V4.50115H68.234ZM68.234 11.3432C69.224 11.3432 69.9793 11.0828 70.5 10.5622C71.0207 10.0342 71.281 9.29715 71.281 8.35115C71.281 7.39782 71.017 6.65348 70.489 6.11815C69.9683 5.58282 69.2167 5.31515 68.234 5.31515H66.848V11.3432H68.234ZM79.1243 8.92315C79.1243 9.11382 79.1133 9.31548 79.0913 9.52815H74.2733C74.31 10.1222 74.5117 10.5878 74.8783 10.9252C75.2523 11.2552 75.7033 11.4202 76.2313 11.4202C76.664 11.4202 77.0233 11.3212 77.3093 11.1232C77.6027 10.9178 77.808 10.6465 77.9253 10.3092H79.0033C78.842 10.8885 78.5193 11.3615 78.0353 11.7282C77.5513 12.0875 76.95 12.2672 76.2313 12.2672C75.6593 12.2672 75.146 12.1388 74.6913 11.8822C74.244 11.6255 73.892 11.2625 73.6353 10.7932C73.3787 10.3165 73.2503 9.76649 73.2503 9.14315C73.2503 8.51982 73.375 7.97348 73.6243 7.50415C73.8737 7.03482 74.222 6.67548 74.6693 6.42615C75.124 6.16948 75.6447 6.04115 76.2313 6.04115C76.8033 6.04115 77.3093 6.16582 77.7493 6.41515C78.1893 6.66449 78.5267 7.00915 78.7613 7.44915C79.0033 7.88182 79.1243 8.37315 79.1243 8.92315ZM78.0903 8.71415C78.0903 8.33282 78.006 8.00648 77.8373 7.73515C77.6687 7.45648 77.4377 7.24749 77.1443 7.10815C76.8583 6.96149 76.5393 6.88815 76.1873 6.88815C75.6813 6.88815 75.2487 7.04948 74.8893 7.37215C74.5373 7.69482 74.3357 8.14215 74.2843 8.71415H78.0903ZM83.3826 6.03015C84.116 6.03015 84.71 6.25382 85.1646 6.70115C85.6193 7.14115 85.8466 7.77915 85.8466 8.61515V12.1682H84.8566V8.75815C84.8566 8.15682 84.7063 7.69848 84.4056 7.38315C84.105 7.06048 83.6943 6.89915 83.1736 6.89915C82.6456 6.89915 82.224 7.06415 81.9086 7.39415C81.6006 7.72415 81.4466 8.20448 81.4466 8.83515V12.1682H80.4456V6.14015H81.4466V6.99815C81.6446 6.69015 81.9123 6.45182 82.2496 6.28315C82.5943 6.11448 82.972 6.03015 83.3826 6.03015ZM90.1108 12.2672C89.5461 12.2672 89.0328 12.1388 88.5708 11.8822C88.1161 11.6255 87.7568 11.2625 87.4928 10.7932C87.2361 10.3165 87.1078 9.76649 87.1078 9.14315C87.1078 8.52715 87.2398 7.98448 87.5038 7.51515C87.7751 7.03848 88.1418 6.67548 88.6038 6.42615C89.0658 6.16948 89.5828 6.04115 90.1548 6.04115C90.7268 6.04115 91.2438 6.16948 91.7058 6.42615C92.1678 6.67548 92.5308 7.03482 92.7948 7.50415C93.0661 7.97348 93.2018 8.51982 93.2018 9.14315C93.2018 9.76649 93.0624 10.3165 92.7838 10.7932C92.5124 11.2625 92.1421 11.6255 91.6728 11.8822C91.2034 12.1388 90.6828 12.2672 90.1108 12.2672ZM90.1108 11.3872C90.4701 11.3872 90.8074 11.3028 91.1228 11.1342C91.4381 10.9655 91.6911 10.7125 91.8818 10.3752C92.0798 10.0378 92.1788 9.62715 92.1788 9.14315C92.1788 8.65915 92.0834 8.24848 91.8928 7.91115C91.7021 7.57382 91.4528 7.32448 91.1448 7.16315C90.8368 6.99449 90.5031 6.91015 90.1438 6.91015C89.7771 6.91015 89.4398 6.99449 89.1318 7.16315C88.8311 7.32448 88.5891 7.57382 88.4058 7.91115C88.2224 8.24848 88.1308 8.65915 88.1308 9.14315C88.1308 9.63449 88.2188 10.0488 88.3948 10.3862C88.5781 10.7235 88.8201 10.9765 89.1208 11.1452C89.4214 11.3065 89.7514 11.3872 90.1108 11.3872ZM96.7619 11.2442L98.6319 6.14015H99.6989L97.3339 12.1682H96.1679L93.8029 6.14015H94.8809L96.7619 11.2442ZM108.149 10.4632H104.805L104.189 12.1682H103.133L105.905 4.54515H107.06L109.821 12.1682H108.765L108.149 10.4632ZM107.863 9.64915L106.477 5.77715L105.091 9.64915H107.863ZM112.03 7.26215C112.235 6.90282 112.536 6.60948 112.932 6.38215C113.328 6.15482 113.779 6.04115 114.285 6.04115C114.827 6.04115 115.315 6.16948 115.748 6.42615C116.18 6.68282 116.521 7.04582 116.771 7.51515C117.02 7.97715 117.145 8.51615 117.145 9.13215C117.145 9.74082 117.02 10.2835 116.771 10.7602C116.521 11.2368 116.177 11.6072 115.737 11.8712C115.304 12.1352 114.82 12.2672 114.285 12.2672C113.764 12.2672 113.306 12.1535 112.91 11.9262C112.521 11.6988 112.228 11.4092 112.03 11.0572V12.1682H111.029V4.02815H112.03V7.26215ZM116.122 9.13215C116.122 8.67748 116.03 8.28148 115.847 7.94415C115.663 7.60682 115.414 7.35015 115.099 7.17415C114.791 6.99815 114.45 6.91015 114.076 6.91015C113.709 6.91015 113.368 7.00182 113.053 7.18515C112.745 7.36115 112.495 7.62148 112.305 7.96615C112.121 8.30348 112.03 8.69582 112.03 9.14315C112.03 9.59782 112.121 9.99749 112.305 10.3422C112.495 10.6795 112.745 10.9398 113.053 11.1232C113.368 11.2992 113.709 11.3872 114.076 11.3872C114.45 11.3872 114.791 11.2992 115.099 11.1232C115.414 10.9398 115.663 10.6795 115.847 10.3422C116.03 9.99749 116.122 9.59415 116.122 9.13215ZM123.808 6.14015V12.1682H122.807V11.2772C122.617 11.5852 122.349 11.8272 122.004 12.0032C121.667 12.1718 121.293 12.2562 120.882 12.2562C120.413 12.2562 119.991 12.1608 119.617 11.9702C119.243 11.7722 118.946 11.4788 118.726 11.0902C118.514 10.7015 118.407 10.2285 118.407 9.67115V6.14015H119.397V9.53915C119.397 10.1332 119.548 10.5915 119.848 10.9142C120.149 11.2295 120.56 11.3872 121.08 11.3872C121.616 11.3872 122.037 11.2222 122.345 10.8922C122.653 10.5622 122.807 10.0818 122.807 9.45115V6.14015H123.808ZM132.963 10.4632H129.619L129.003 12.1682H127.947L130.719 4.54515H131.874L134.635 12.1682H133.579L132.963 10.4632ZM132.677 9.64915L131.291 5.77715L129.905 9.64915H132.677ZM136.844 4.02815V12.1682H135.843V4.02815H136.844ZM139.067 5.16115C138.876 5.16115 138.715 5.09515 138.583 4.96315C138.451 4.83115 138.385 4.66982 138.385 4.47915C138.385 4.28848 138.451 4.12715 138.583 3.99515C138.715 3.86315 138.876 3.79715 139.067 3.79715C139.25 3.79715 139.404 3.86315 139.529 3.99515C139.661 4.12715 139.727 4.28848 139.727 4.47915C139.727 4.66982 139.661 4.83115 139.529 4.96315C139.404 5.09515 139.25 5.16115 139.067 5.16115ZM139.551 6.14015V12.1682H138.55V6.14015H139.551ZM144.707 5.16115C144.516 5.16115 144.355 5.09515 144.223 4.96315C144.091 4.83115 144.025 4.66982 144.025 4.47915C144.025 4.28848 144.091 4.12715 144.223 3.99515C144.355 3.86315 144.516 3.79715 144.707 3.79715C144.89 3.79715 145.044 3.86315 145.169 3.99515C145.301 4.12715 145.367 4.28848 145.367 4.47915C145.367 4.66982 145.301 4.83115 145.169 4.96315C145.044 5.09515 144.89 5.16115 144.707 5.16115ZM145.191 6.14015V12.1682H144.19V6.14015H145.191ZM147.898 7.26215C148.103 6.90282 148.404 6.60948 148.8 6.38215C149.196 6.15482 149.647 6.04115 150.153 6.04115C150.695 6.04115 151.183 6.16948 151.616 6.42615C152.048 6.68282 152.389 7.04582 152.639 7.51515C152.888 7.97715 153.013 8.51615 153.013 9.13215C153.013 9.74082 152.888 10.2835 152.639 10.7602C152.389 11.2368 152.045 11.6072 151.605 11.8712C151.172 12.1352 150.688 12.2672 150.153 12.2672C149.632 12.2672 149.174 12.1535 148.778 11.9262C148.389 11.6988 148.096 11.4092 147.898 11.0572V12.1682H146.897V4.02815H147.898V7.26215ZM151.99 9.13215C151.99 8.67748 151.898 8.28148 151.715 7.94415C151.531 7.60682 151.282 7.35015 150.967 7.17415C150.659 6.99815 150.318 6.91015 149.944 6.91015C149.577 6.91015 149.236 7.00182 148.921 7.18515C148.613 7.36115 148.363 7.62148 148.173 7.96615C147.989 8.30348 147.898 8.69582 147.898 9.14315C147.898 9.59782 147.989 9.99749 148.173 10.3422C148.363 10.6795 148.613 10.9398 148.921 11.1232C149.236 11.2992 149.577 11.3872 149.944 11.3872C150.318 11.3872 150.659 11.2992 150.967 11.1232C151.282 10.9398 151.531 10.6795 151.715 10.3422C151.898 9.99749 151.99 9.59415 151.99 9.13215ZM157.267 6.03015C158.001 6.03015 158.595 6.25382 159.049 6.70115C159.504 7.14115 159.731 7.77915 159.731 8.61515V12.1682H158.741V8.75815C158.741 8.15682 158.591 7.69848 158.29 7.38315C157.99 7.06048 157.579 6.89915 157.058 6.89915C156.53 6.89915 156.109 7.06415 155.793 7.39415C155.485 7.72415 155.331 8.20448 155.331 8.83515V12.1682H154.33V6.14015H155.331V6.99815C155.529 6.69015 155.797 6.45182 156.134 6.28315C156.479 6.11448 156.857 6.03015 157.267 6.03015ZM166.73 12.2452C166.224 12.2452 165.769 12.1572 165.366 11.9812C164.97 11.7978 164.658 11.5485 164.431 11.2332C164.204 10.9105 164.086 10.5402 164.079 10.1222H165.146C165.183 10.4815 165.329 10.7858 165.586 11.0352C165.85 11.2772 166.231 11.3982 166.73 11.3982C167.207 11.3982 167.581 11.2808 167.852 11.0462C168.131 10.8042 168.27 10.4962 168.27 10.1222C168.27 9.82882 168.189 9.59049 168.028 9.40715C167.867 9.22382 167.665 9.08449 167.423 8.98915C167.181 8.89382 166.855 8.79115 166.444 8.68115C165.938 8.54915 165.531 8.41715 165.223 8.28515C164.922 8.15315 164.662 7.94782 164.442 7.66915C164.229 7.38315 164.123 7.00182 164.123 6.52515C164.123 6.10715 164.229 5.73682 164.442 5.41415C164.655 5.09148 164.952 4.84215 165.333 4.66615C165.722 4.49015 166.165 4.40215 166.664 4.40215C167.383 4.40215 167.969 4.58182 168.424 4.94115C168.886 5.30048 169.146 5.77715 169.205 6.37115H168.105C168.068 6.07782 167.914 5.82115 167.643 5.60115C167.372 5.37382 167.012 5.26015 166.565 5.26015C166.147 5.26015 165.806 5.37015 165.542 5.59015C165.278 5.80282 165.146 6.10349 165.146 6.49215C165.146 6.77082 165.223 6.99815 165.377 7.17415C165.538 7.35015 165.733 7.48582 165.96 7.58115C166.195 7.66915 166.521 7.77182 166.939 7.88915C167.445 8.02849 167.852 8.16782 168.16 8.30715C168.468 8.43915 168.732 8.64815 168.952 8.93415C169.172 9.21282 169.282 9.59415 169.282 10.0782C169.282 10.4522 169.183 10.8042 168.985 11.1342C168.787 11.4642 168.494 11.7318 168.105 11.9372C167.716 12.1425 167.258 12.2452 166.73 12.2452ZM171.272 5.16115C171.082 5.16115 170.92 5.09515 170.788 4.96315C170.656 4.83115 170.59 4.66982 170.59 4.47915C170.59 4.28848 170.656 4.12715 170.788 3.99515C170.92 3.86315 171.082 3.79715 171.272 3.79715C171.456 3.79715 171.61 3.86315 171.734 3.99515C171.866 4.12715 171.932 4.28848 171.932 4.47915C171.932 4.66982 171.866 4.83115 171.734 4.96315C171.61 5.09515 171.456 5.16115 171.272 5.16115ZM171.756 6.14015V12.1682H170.755V6.14015H171.756ZM176.399 6.03015C177.133 6.03015 177.727 6.25382 178.181 6.70115C178.636 7.14115 178.863 7.77915 178.863 8.61515V12.1682H177.873V8.75815C177.873 8.15682 177.723 7.69848 177.422 7.38315C177.122 7.06048 176.711 6.89915 176.19 6.89915C175.662 6.89915 175.241 7.06415 174.925 7.39415C174.617 7.72415 174.463 8.20448 174.463 8.83515V12.1682H173.462V6.14015H174.463V6.99815C174.661 6.69015 174.929 6.45182 175.266 6.28315C175.611 6.11448 175.989 6.03015 176.399 6.03015ZM183.127 12.2672C182.563 12.2672 182.049 12.1388 181.587 11.8822C181.133 11.6255 180.773 11.2625 180.509 10.7932C180.253 10.3165 180.124 9.76649 180.124 9.14315C180.124 8.52715 180.256 7.98448 180.52 7.51515C180.792 7.03848 181.158 6.67548 181.62 6.42615C182.082 6.16948 182.599 6.04115 183.171 6.04115C183.743 6.04115 184.26 6.16948 184.722 6.42615C185.184 6.67548 185.547 7.03482 185.811 7.50415C186.083 7.97348 186.218 8.51982 186.218 9.14315C186.218 9.76649 186.079 10.3165 185.8 10.7932C185.529 11.2625 185.159 11.6255 184.689 11.8822C184.22 12.1388 183.699 12.2672 183.127 12.2672ZM183.127 11.3872C183.487 11.3872 183.824 11.3028 184.139 11.1342C184.455 10.9655 184.708 10.7125 184.898 10.3752C185.096 10.0378 185.195 9.62715 185.195 9.14315C185.195 8.65915 185.1 8.24848 184.909 7.91115C184.719 7.57382 184.469 7.32448 184.161 7.16315C183.853 6.99449 183.52 6.91015 183.16 6.91015C182.794 6.91015 182.456 6.99449 182.148 7.16315C181.848 7.32448 181.606 7.57382 181.422 7.91115C181.239 8.24848 181.147 8.65915 181.147 9.14315C181.147 9.63449 181.235 10.0488 181.411 10.3862C181.595 10.7235 181.837 10.9765 182.137 11.1452C182.438 11.3065 182.768 11.3872 183.127 11.3872ZM68.784 22.0302C69.5173 22.0302 70.1113 22.2538 70.566 22.7012C71.0207 23.1412 71.248 23.7792 71.248 24.6152V28.1682H70.258V24.7582C70.258 24.1568 70.1077 23.6985 69.807 23.3832C69.5063 23.0605 69.0957 22.8992 68.575 22.8992C68.047 22.8992 67.6253 23.0642 67.31 23.3942C67.002 23.7242 66.848 24.2045 66.848 24.8352V28.1682H65.847V22.1402H66.848V22.9982C67.046 22.6902 67.3137 22.4518 67.651 22.2832C67.9957 22.1145 68.3733 22.0302 68.784 22.0302ZM75.5121 28.2672C74.9475 28.2672 74.4341 28.1388 73.9721 27.8822C73.5175 27.6255 73.1581 27.2625 72.8941 26.7932C72.6375 26.3165 72.5091 25.7665 72.5091 25.1432C72.5091 24.5272 72.6411 23.9845 72.9051 23.5152C73.1765 23.0385 73.5431 22.6755 74.0051 22.4262C74.4671 22.1695 74.9841 22.0412 75.5561 22.0412C76.1281 22.0412 76.6451 22.1695 77.1071 22.4262C77.5691 22.6755 77.9321 23.0348 78.1961 23.5042C78.4675 23.9735 78.6031 24.5198 78.6031 25.1432C78.6031 25.7665 78.4638 26.3165 78.1851 26.7932C77.9138 27.2625 77.5435 27.6255 77.0741 27.8822C76.6048 28.1388 76.0841 28.2672 75.5121 28.2672ZM75.5121 27.3872C75.8715 27.3872 76.2088 27.3028 76.5241 27.1342C76.8395 26.9655 77.0925 26.7125 77.2831 26.3752C77.4811 26.0378 77.5801 25.6272 77.5801 25.1432C77.5801 24.6592 77.4848 24.2485 77.2941 23.9112C77.1035 23.5738 76.8541 23.3245 76.5461 23.1632C76.2381 22.9945 75.9045 22.9102 75.5451 22.9102C75.1785 22.9102 74.8411 22.9945 74.5331 23.1632C74.2325 23.3245 73.9905 23.5738 73.8071 23.9112C73.6238 24.2485 73.5321 24.6592 73.5321 25.1432C73.5321 25.6345 73.6201 26.0488 73.7961 26.3862C73.9795 26.7235 74.2215 26.9765 74.5221 27.1452C74.8228 27.3065 75.1528 27.3872 75.5121 27.3872ZM87.1683 22.0302C87.6376 22.0302 88.0556 22.1292 88.4223 22.3272C88.7889 22.5178 89.0786 22.8075 89.2913 23.1962C89.5039 23.5848 89.6103 24.0578 89.6103 24.6152V28.1682H88.6203V24.7582C88.6203 24.1568 88.4699 23.6985 88.1693 23.3832C87.8759 23.0605 87.4763 22.8992 86.9703 22.8992C86.4496 22.8992 86.0353 23.0678 85.7273 23.4052C85.4193 23.7352 85.2653 24.2155 85.2653 24.8462V28.1682H84.2753V24.7582C84.2753 24.1568 84.1249 23.6985 83.8243 23.3832C83.5309 23.0605 83.1313 22.8992 82.6253 22.8992C82.1046 22.8992 81.6903 23.0678 81.3823 23.4052C81.0743 23.7352 80.9203 24.2155 80.9203 24.8462V28.1682H79.9193V22.1402H80.9203V23.0092C81.1183 22.6938 81.3823 22.4518 81.7123 22.2832C82.0496 22.1145 82.4199 22.0302 82.8233 22.0302C83.3293 22.0302 83.7766 22.1438 84.1653 22.3712C84.5539 22.5985 84.8436 22.9322 85.0343 23.3722C85.2029 22.9468 85.4816 22.6168 85.8703 22.3822C86.2589 22.1475 86.6916 22.0302 87.1683 22.0302ZM91.7693 21.1612C91.5786 21.1612 91.4173 21.0952 91.2853 20.9632C91.1533 20.8312 91.0873 20.6698 91.0873 20.4792C91.0873 20.2885 91.1533 20.1272 91.2853 19.9952C91.4173 19.8632 91.5786 19.7972 91.7693 19.7972C91.9526 19.7972 92.1066 19.8632 92.2313 19.9952C92.3633 20.1272 92.4293 20.2885 92.4293 20.4792C92.4293 20.6698 92.3633 20.8312 92.2313 20.9632C92.1066 21.0952 91.9526 21.1612 91.7693 21.1612ZM92.2533 22.1402V28.1682H91.2523V22.1402H92.2533ZM93.5853 25.1322C93.5853 24.5162 93.71 23.9772 93.9593 23.5152C94.2086 23.0458 94.5496 22.6828 94.9823 22.4262C95.4223 22.1695 95.9136 22.0412 96.4563 22.0412C96.9256 22.0412 97.362 22.1512 97.7653 22.3712C98.1686 22.5838 98.4766 22.8662 98.6893 23.2182V20.0282H99.7013V28.1682H98.6893V27.0352C98.4913 27.3945 98.198 27.6915 97.8093 27.9262C97.4206 28.1535 96.966 28.2672 96.4453 28.2672C95.91 28.2672 95.4223 28.1352 94.9823 27.8712C94.5496 27.6072 94.2086 27.2368 93.9593 26.7602C93.71 26.2835 93.5853 25.7408 93.5853 25.1322ZM98.6893 25.1432C98.6893 24.6885 98.5976 24.2925 98.4143 23.9552C98.231 23.6178 97.9816 23.3612 97.6663 23.1852C97.3583 23.0018 97.0173 22.9102 96.6433 22.9102C96.2693 22.9102 95.9283 22.9982 95.6203 23.1742C95.3123 23.3502 95.0666 23.6068 94.8833 23.9442C94.7 24.2815 94.6083 24.6775 94.6083 25.1322C94.6083 25.5942 94.7 25.9975 94.8833 26.3422C95.0666 26.6795 95.3123 26.9398 95.6203 27.1232C95.9283 27.2992 96.2693 27.3872 96.6433 27.3872C97.0173 27.3872 97.3583 27.2992 97.6663 27.1232C97.9816 26.9398 98.231 26.6795 98.4143 26.3422C98.5976 25.9975 98.6893 25.5978 98.6893 25.1432ZM101.019 25.1322C101.019 24.5162 101.144 23.9772 101.393 23.5152C101.642 23.0458 101.983 22.6828 102.416 22.4262C102.856 22.1695 103.344 22.0412 103.879 22.0412C104.407 22.0412 104.865 22.1548 105.254 22.3822C105.643 22.6095 105.932 22.8955 106.123 23.2402V22.1402H107.135V28.1682H106.123V27.0462C105.925 27.3982 105.628 27.6915 105.232 27.9262C104.843 28.1535 104.389 28.2672 103.868 28.2672C103.333 28.2672 102.849 28.1352 102.416 27.8712C101.983 27.6072 101.642 27.2368 101.393 26.7602C101.144 26.2835 101.019 25.7408 101.019 25.1322ZM106.123 25.1432C106.123 24.6885 106.031 24.2925 105.848 23.9552C105.665 23.6178 105.415 23.3612 105.1 23.1852C104.792 23.0018 104.451 22.9102 104.077 22.9102C103.703 22.9102 103.362 22.9982 103.054 23.1742C102.746 23.3502 102.5 23.6068 102.317 23.9442C102.134 24.2815 102.042 24.6775 102.042 25.1322C102.042 25.5942 102.134 25.9975 102.317 26.3422C102.5 26.6795 102.746 26.9398 103.054 27.1232C103.362 27.2992 103.703 27.3872 104.077 27.3872C104.451 27.3872 104.792 27.2992 105.1 27.1232C105.415 26.9398 105.665 26.6795 105.848 26.3422C106.031 25.9975 106.123 25.5978 106.123 25.1432ZM111.312 22.0412C111.833 22.0412 112.288 22.1548 112.676 22.3822C113.072 22.6095 113.366 22.8955 113.556 23.2402V22.1402H114.568V28.3002C114.568 28.8502 114.451 29.3378 114.216 29.7632C113.982 30.1958 113.644 30.5332 113.204 30.7752C112.772 31.0172 112.266 31.1382 111.686 31.1382C110.894 31.1382 110.234 30.9512 109.706 30.5772C109.178 30.2032 108.867 29.6935 108.771 29.0482H109.761C109.871 29.4148 110.099 29.7082 110.443 29.9282C110.788 30.1555 111.202 30.2692 111.686 30.2692C112.236 30.2692 112.684 30.0968 113.028 29.7522C113.38 29.4075 113.556 28.9235 113.556 28.3002V27.0352C113.358 27.3872 113.065 27.6805 112.676 27.9152C112.288 28.1498 111.833 28.2672 111.312 28.2672C110.777 28.2672 110.289 28.1352 109.849 27.8712C109.417 27.6072 109.076 27.2368 108.826 26.7602C108.577 26.2835 108.452 25.7408 108.452 25.1322C108.452 24.5162 108.577 23.9772 108.826 23.5152C109.076 23.0458 109.417 22.6828 109.849 22.4262C110.289 22.1695 110.777 22.0412 111.312 22.0412ZM113.556 25.1432C113.556 24.6885 113.465 24.2925 113.281 23.9552C113.098 23.6178 112.849 23.3612 112.533 23.1852C112.225 23.0018 111.884 22.9102 111.51 22.9102C111.136 22.9102 110.795 22.9982 110.487 23.1742C110.179 23.3502 109.934 23.6068 109.75 23.9442C109.567 24.2815 109.475 24.6775 109.475 25.1322C109.475 25.5942 109.567 25.9975 109.75 26.3422C109.934 26.6795 110.179 26.9398 110.487 27.1232C110.795 27.2992 111.136 27.3872 111.51 27.3872C111.884 27.3872 112.225 27.2992 112.533 27.1232C112.849 26.9398 113.098 26.6795 113.281 26.3422C113.465 25.9975 113.556 25.5978 113.556 25.1432ZM116.777 21.1612C116.586 21.1612 116.425 21.0952 116.293 20.9632C116.161 20.8312 116.095 20.6698 116.095 20.4792C116.095 20.2885 116.161 20.1272 116.293 19.9952C116.425 19.8632 116.586 19.7972 116.777 19.7972C116.96 19.7972 117.114 19.8632 117.239 19.9952C117.371 20.1272 117.437 20.2885 117.437 20.4792C117.437 20.6698 117.371 20.8312 117.239 20.9632C117.114 21.0952 116.96 21.1612 116.777 21.1612ZM117.261 22.1402V28.1682H116.26V22.1402H117.261ZM125.761 20.5012V26.1662C125.761 26.7968 125.566 27.3028 125.178 27.6842C124.789 28.0582 124.276 28.2452 123.638 28.2452C122.992 28.2452 122.475 28.0545 122.087 27.6732C121.698 27.2845 121.504 26.7565 121.504 26.0892H122.505C122.512 26.4632 122.607 26.7675 122.791 27.0022C122.981 27.2368 123.264 27.3542 123.638 27.3542C124.012 27.3542 124.29 27.2442 124.474 27.0242C124.657 26.7968 124.749 26.5108 124.749 26.1662V20.5012H125.761ZM127.359 25.1322C127.359 24.5162 127.483 23.9772 127.733 23.5152C127.982 23.0458 128.323 22.6828 128.756 22.4262C129.196 22.1695 129.683 22.0412 130.219 22.0412C130.747 22.0412 131.205 22.1548 131.594 22.3822C131.982 22.6095 132.272 22.8955 132.463 23.2402V22.1402H133.475V28.1682H132.463V27.0462C132.265 27.3982 131.968 27.6915 131.572 27.9262C131.183 28.1535 130.728 28.2672 130.208 28.2672C129.672 28.2672 129.188 28.1352 128.756 27.8712C128.323 27.6072 127.982 27.2368 127.733 26.7602C127.483 26.2835 127.359 25.7408 127.359 25.1322ZM132.463 25.1432C132.463 24.6885 132.371 24.2925 132.188 23.9552C132.004 23.6178 131.755 23.3612 131.44 23.1852C131.132 23.0018 130.791 22.9102 130.417 22.9102C130.043 22.9102 129.702 22.9982 129.394 23.1742C129.086 23.3502 128.84 23.6068 128.657 23.9442C128.473 24.2815 128.382 24.6775 128.382 25.1322C128.382 25.5942 128.473 25.9975 128.657 26.3422C128.84 26.6795 129.086 26.9398 129.394 27.1232C129.702 27.2992 130.043 27.3872 130.417 27.3872C130.791 27.3872 131.132 27.2992 131.44 27.1232C131.755 26.9398 132.004 26.6795 132.188 26.3422C132.371 25.9975 132.463 25.5978 132.463 25.1432ZM142.415 22.0302C142.885 22.0302 143.303 22.1292 143.669 22.3272C144.036 22.5178 144.326 22.8075 144.538 23.1962C144.751 23.5848 144.857 24.0578 144.857 24.6152V28.1682H143.867V24.7582C143.867 24.1568 143.717 23.6985 143.416 23.3832C143.123 23.0605 142.723 22.8992 142.217 22.8992C141.697 22.8992 141.282 23.0678 140.974 23.4052C140.666 23.7352 140.512 24.2155 140.512 24.8462V28.1682H139.522V24.7582C139.522 24.1568 139.372 23.6985 139.071 23.3832C138.778 23.0605 138.378 22.8992 137.872 22.8992C137.352 22.8992 136.937 23.0678 136.629 23.4052C136.321 23.7352 136.167 24.2155 136.167 24.8462V28.1682H135.166V22.1402H136.167V23.0092C136.365 22.6938 136.629 22.4518 136.959 22.2832C137.297 22.1145 137.667 22.0302 138.07 22.0302C138.576 22.0302 139.024 22.1438 139.412 22.3712C139.801 22.5985 140.091 22.9322 140.281 23.3722C140.45 22.9468 140.729 22.6168 141.117 22.3822C141.506 22.1475 141.939 22.0302 142.415 22.0302ZM149.128 28.2672C148.564 28.2672 148.05 28.1388 147.588 27.8822C147.134 27.6255 146.774 27.2625 146.51 26.7932C146.254 26.3165 146.125 25.7665 146.125 25.1432C146.125 24.5272 146.257 23.9845 146.521 23.5152C146.793 23.0385 147.159 22.6755 147.621 22.4262C148.083 22.1695 148.6 22.0412 149.172 22.0412C149.744 22.0412 150.261 22.1695 150.723 22.4262C151.185 22.6755 151.548 23.0348 151.812 23.5042C152.084 23.9735 152.219 24.5198 152.219 25.1432C152.219 25.7665 152.08 26.3165 151.801 26.7932C151.53 27.2625 151.16 27.6255 150.69 27.8822C150.221 28.1388 149.7 28.2672 149.128 28.2672ZM149.128 27.3872C149.488 27.3872 149.825 27.3028 150.14 27.1342C150.456 26.9655 150.709 26.7125 150.899 26.3752C151.097 26.0378 151.196 25.6272 151.196 25.1432C151.196 24.6592 151.101 24.2485 150.91 23.9112C150.72 23.5738 150.47 23.3245 150.162 23.1632C149.854 22.9945 149.521 22.9102 149.161 22.9102C148.795 22.9102 148.457 22.9945 148.149 23.1632C147.849 23.3245 147.607 23.5738 147.423 23.9112C147.24 24.2485 147.148 24.6592 147.148 25.1432C147.148 25.6345 147.236 26.0488 147.412 26.3862C147.596 26.7235 147.838 26.9765 148.138 27.1452C148.439 27.3065 148.769 27.3872 149.128 27.3872ZM153.161 25.1322C153.161 24.5162 153.286 23.9772 153.535 23.5152C153.785 23.0458 154.126 22.6828 154.558 22.4262C154.998 22.1695 155.486 22.0412 156.021 22.0412C156.549 22.0412 157.008 22.1548 157.396 22.3822C157.785 22.6095 158.075 22.8955 158.265 23.2402V22.1402H159.277V28.1682H158.265V27.0462C158.067 27.3982 157.77 27.6915 157.374 27.9262C156.986 28.1535 156.531 28.2672 156.01 28.2672C155.475 28.2672 154.991 28.1352 154.558 27.8712C154.126 27.6072 153.785 27.2368 153.535 26.7602C153.286 26.2835 153.161 25.7408 153.161 25.1322ZM158.265 25.1432C158.265 24.6885 158.174 24.2925 157.99 23.9552C157.807 23.6178 157.558 23.3612 157.242 23.1852C156.934 23.0018 156.593 22.9102 156.219 22.9102C155.845 22.9102 155.504 22.9982 155.196 23.1742C154.888 23.3502 154.643 23.6068 154.459 23.9442C154.276 24.2815 154.184 24.6775 154.184 25.1322C154.184 25.5942 154.276 25.9975 154.459 26.3422C154.643 26.6795 154.888 26.9398 155.196 27.1232C155.504 27.2992 155.845 27.3872 156.219 27.3872C156.593 27.3872 156.934 27.2992 157.242 27.1232C157.558 26.9398 157.807 26.6795 157.99 26.3422C158.174 25.9975 158.265 25.5978 158.265 25.1432ZM162.19 22.9652V26.5182C162.19 26.8115 162.252 27.0205 162.377 27.1452C162.502 27.2625 162.718 27.3212 163.026 27.3212H163.763V28.1682H162.861C162.304 28.1682 161.886 28.0398 161.607 27.7832C161.328 27.5265 161.189 27.1048 161.189 26.5182V22.9652H160.408V22.1402H161.189V20.6222H162.19V22.1402H163.763V22.9652H162.19ZM67.981 44.2672C67.519 44.2672 67.1047 44.1902 66.738 44.0362C66.3713 43.8748 66.0817 43.6548 65.869 43.3762C65.6563 43.0902 65.539 42.7638 65.517 42.3972H66.551C66.5803 42.6978 66.7197 42.9435 66.969 43.1342C67.2257 43.3248 67.5593 43.4202 67.97 43.4202C68.3513 43.4202 68.652 43.3358 68.872 43.1672C69.092 42.9985 69.202 42.7858 69.202 42.5292C69.202 42.2652 69.0847 42.0708 68.85 41.9462C68.6153 41.8142 68.2523 41.6858 67.761 41.5612C67.3137 41.4438 66.947 41.3265 66.661 41.2092C66.3823 41.0845 66.1403 40.9048 65.935 40.6702C65.737 40.4282 65.638 40.1128 65.638 39.7242C65.638 39.4162 65.7297 39.1338 65.913 38.8772C66.0963 38.6205 66.3567 38.4188 66.694 38.2722C67.0313 38.1182 67.4163 38.0412 67.849 38.0412C68.5163 38.0412 69.0553 38.2098 69.466 38.5472C69.8767 38.8845 70.0967 39.3465 70.126 39.9332H69.125C69.103 39.6178 68.9747 39.3648 68.74 39.1742C68.5127 38.9835 68.2047 38.8882 67.816 38.8882C67.4567 38.8882 67.1707 38.9652 66.958 39.1192C66.7453 39.2732 66.639 39.4748 66.639 39.7242C66.639 39.9222 66.7013 40.0872 66.826 40.2192C66.958 40.3438 67.1193 40.4465 67.31 40.5272C67.508 40.6005 67.7793 40.6848 68.124 40.7802C68.5567 40.8975 68.9087 41.0148 69.18 41.1322C69.4513 41.2422 69.6823 41.4108 69.873 41.6382C70.071 41.8655 70.1737 42.1625 70.181 42.5292C70.181 42.8592 70.0893 43.1562 69.906 43.4202C69.7227 43.6842 69.4623 43.8932 69.125 44.0472C68.795 44.1938 68.4137 44.2672 67.981 44.2672ZM71.2201 41.1322C71.2201 40.5162 71.3447 39.9772 71.5941 39.5152C71.8434 39.0458 72.1844 38.6828 72.6171 38.4262C73.0571 38.1695 73.5447 38.0412 74.0801 38.0412C74.6081 38.0412 75.0664 38.1548 75.4551 38.3822C75.8437 38.6095 76.1334 38.8955 76.3241 39.2402V38.1402H77.3361V44.1682H76.3241V43.0462C76.1261 43.3982 75.8291 43.6915 75.4331 43.9262C75.0444 44.1535 74.5897 44.2672 74.0691 44.2672C73.5337 44.2672 73.0497 44.1352 72.6171 43.8712C72.1844 43.6072 71.8434 43.2368 71.5941 42.7602C71.3447 42.2835 71.2201 41.7408 71.2201 41.1322ZM76.3241 41.1432C76.3241 40.6885 76.2324 40.2925 76.0491 39.9552C75.8657 39.6178 75.6164 39.3612 75.3011 39.1852C74.9931 39.0018 74.6521 38.9102 74.2781 38.9102C73.9041 38.9102 73.5631 38.9982 73.2551 39.1742C72.9471 39.3502 72.7014 39.6068 72.5181 39.9442C72.3347 40.2815 72.2431 40.6775 72.2431 41.1322C72.2431 41.5942 72.3347 41.9975 72.5181 42.3422C72.7014 42.6795 72.9471 42.9398 73.2551 43.1232C73.5631 43.2992 73.9041 43.3872 74.2781 43.3872C74.6521 43.3872 74.9931 43.2992 75.3011 43.1232C75.6164 42.9398 75.8657 42.6795 76.0491 42.3422C76.2324 41.9975 76.3241 41.5978 76.3241 41.1432ZM80.0287 36.0282V44.1682H79.0277V36.0282H80.0287ZM84.3637 44.2672C83.799 44.2672 83.2857 44.1388 82.8237 43.8822C82.369 43.6255 82.0097 43.2625 81.7457 42.7932C81.489 42.3165 81.3607 41.7665 81.3607 41.1432C81.3607 40.5272 81.4927 39.9845 81.7567 39.5152C82.028 39.0385 82.3947 38.6755 82.8567 38.4262C83.3187 38.1695 83.8357 38.0412 84.4077 38.0412C84.9797 38.0412 85.4967 38.1695 85.9587 38.4262C86.4207 38.6755 86.7837 39.0348 87.0477 39.5042C87.319 39.9735 87.4547 40.5198 87.4547 41.1432C87.4547 41.7665 87.3154 42.3165 87.0367 42.7932C86.7654 43.2625 86.395 43.6255 85.9257 43.8822C85.4564 44.1388 84.9357 44.2672 84.3637 44.2672ZM84.3637 43.3872C84.723 43.3872 85.0604 43.3028 85.3757 43.1342C85.691 42.9655 85.944 42.7125 86.1347 42.3752C86.3327 42.0378 86.4317 41.6272 86.4317 41.1432C86.4317 40.6592 86.3364 40.2485 86.1457 39.9112C85.955 39.5738 85.7057 39.3245 85.3977 39.1632C85.0897 38.9945 84.756 38.9102 84.3967 38.9102C84.03 38.9102 83.6927 38.9945 83.3847 39.1632C83.084 39.3245 82.842 39.5738 82.6587 39.9112C82.4754 40.2485 82.3837 40.6592 82.3837 41.1432C82.3837 41.6345 82.4717 42.0488 82.6477 42.3862C82.831 42.7235 83.073 42.9765 83.3737 43.1452C83.6744 43.3065 84.0044 43.3872 84.3637 43.3872ZM96.0198 38.0302C96.4892 38.0302 96.9072 38.1292 97.2738 38.3272C97.6405 38.5178 97.9302 38.8075 98.1428 39.1962C98.3555 39.5848 98.4618 40.0578 98.4618 40.6152V44.1682H97.4718V40.7582C97.4718 40.1568 97.3215 39.6985 97.0208 39.3832C96.7275 39.0605 96.3278 38.8992 95.8218 38.8992C95.3012 38.8992 94.8868 39.0678 94.5788 39.4052C94.2708 39.7352 94.1168 40.2155 94.1168 40.8462V44.1682H93.1268V40.7582C93.1268 40.1568 92.9765 39.6985 92.6758 39.3832C92.3825 39.0605 91.9828 38.8992 91.4768 38.8992C90.9562 38.8992 90.5418 39.0678 90.2338 39.4052C89.9258 39.7352 89.7718 40.2155 89.7718 40.8462V44.1682H88.7708V38.1402H89.7718V39.0092C89.9698 38.6938 90.2338 38.4518 90.5638 38.2832C90.9012 38.1145 91.2715 38.0302 91.6748 38.0302C92.1808 38.0302 92.6282 38.1438 93.0168 38.3712C93.4055 38.5985 93.6952 38.9322 93.8858 39.3722C94.0545 38.9468 94.3332 38.6168 94.7218 38.3822C95.1105 38.1475 95.5432 38.0302 96.0198 38.0302ZM99.7298 41.1322C99.7298 40.5162 99.8545 39.9772 100.104 39.5152C100.353 39.0458 100.694 38.6828 101.127 38.4262C101.567 38.1695 102.055 38.0412 102.59 38.0412C103.118 38.0412 103.576 38.1548 103.965 38.3822C104.354 38.6095 104.643 38.8955 104.834 39.2402V38.1402H105.846V44.1682H104.834V43.0462C104.636 43.3982 104.339 43.6915 103.943 43.9262C103.554 44.1535 103.1 44.2672 102.579 44.2672C102.044 44.2672 101.56 44.1352 101.127 43.8712C100.694 43.6072 100.353 43.2368 100.104 42.7602C99.8545 42.2835 99.7298 41.7408 99.7298 41.1322ZM104.834 41.1432C104.834 40.6885 104.742 40.2925 104.559 39.9552C104.376 39.6178 104.126 39.3612 103.811 39.1852C103.503 39.0018 103.162 38.9102 102.788 38.9102C102.414 38.9102 102.073 38.9982 101.765 39.1742C101.457 39.3502 101.211 39.6068 101.028 39.9442C100.845 40.2815 100.753 40.6775 100.753 41.1322C100.753 41.5942 100.845 41.9975 101.028 42.3422C101.211 42.6795 101.457 42.9398 101.765 43.1232C102.073 43.2992 102.414 43.3872 102.788 43.3872C103.162 43.3872 103.503 43.2992 103.811 43.1232C104.126 42.9398 104.376 42.6795 104.559 42.3422C104.742 41.9975 104.834 41.5978 104.834 41.1432ZM108.758 38.9652V42.5182C108.758 42.8115 108.821 43.0205 108.945 43.1452C109.07 43.2625 109.286 43.3212 109.594 43.3212H110.331V44.1682H109.429C108.872 44.1682 108.454 44.0398 108.175 43.7832C107.897 43.5265 107.757 43.1048 107.757 42.5182V38.9652H106.976V38.1402H107.757V36.6222H108.758V38.1402H110.331V38.9652H108.758ZM112.545 36.0282V44.1682H111.544V36.0282H112.545ZM114.768 37.1612C114.578 37.1612 114.416 37.0952 114.284 36.9632C114.152 36.8312 114.086 36.6698 114.086 36.4792C114.086 36.2885 114.152 36.1272 114.284 35.9952C114.416 35.8632 114.578 35.7972 114.768 35.7972C114.952 35.7972 115.106 35.8632 115.23 35.9952C115.362 36.1272 115.428 36.2885 115.428 36.4792C115.428 36.6698 115.362 36.8312 115.23 36.9632C115.106 37.0952 114.952 37.1612 114.768 37.1612ZM115.252 38.1402V44.1682H114.251V38.1402H115.252ZM119.444 38.0412C119.965 38.0412 120.42 38.1548 120.808 38.3822C121.204 38.6095 121.498 38.8955 121.688 39.2402V38.1402H122.7V44.3002C122.7 44.8502 122.583 45.3378 122.348 45.7632C122.114 46.1958 121.776 46.5332 121.336 46.7752C120.904 47.0172 120.398 47.1382 119.818 47.1382C119.026 47.1382 118.366 46.9512 117.838 46.5772C117.31 46.2032 116.999 45.6935 116.903 45.0482H117.893C118.003 45.4148 118.231 45.7082 118.575 45.9282C118.92 46.1555 119.334 46.2692 119.818 46.2692C120.368 46.2692 120.816 46.0968 121.16 45.7522C121.512 45.4075 121.688 44.9235 121.688 44.3002V43.0352C121.49 43.3872 121.197 43.6805 120.808 43.9152C120.42 44.1498 119.965 44.2672 119.444 44.2672C118.909 44.2672 118.421 44.1352 117.981 43.8712C117.549 43.6072 117.208 43.2368 116.958 42.7602C116.709 42.2835 116.584 41.7408 116.584 41.1322C116.584 40.5162 116.709 39.9772 116.958 39.5152C117.208 39.0458 117.549 38.6828 117.981 38.4262C118.421 38.1695 118.909 38.0412 119.444 38.0412ZM121.688 41.1432C121.688 40.6885 121.597 40.2925 121.413 39.9552C121.23 39.6178 120.981 39.3612 120.665 39.1852C120.357 39.0018 120.016 38.9102 119.642 38.9102C119.268 38.9102 118.927 38.9982 118.619 39.1742C118.311 39.3502 118.066 39.6068 117.882 39.9442C117.699 40.2815 117.607 40.6775 117.607 41.1322C117.607 41.5942 117.699 41.9975 117.882 42.3422C118.066 42.6795 118.311 42.9398 118.619 43.1232C118.927 43.2992 119.268 43.3872 119.642 43.3872C120.016 43.3872 120.357 43.2992 120.665 43.1232C120.981 42.9398 121.23 42.6795 121.413 42.3422C121.597 41.9975 121.688 41.5978 121.688 41.1432ZM124.909 37.1612C124.718 37.1612 124.557 37.0952 124.425 36.9632C124.293 36.8312 124.227 36.6698 124.227 36.4792C124.227 36.2885 124.293 36.1272 124.425 35.9952C124.557 35.8632 124.718 35.7972 124.909 35.7972C125.092 35.7972 125.246 35.8632 125.371 35.9952C125.503 36.1272 125.569 36.2885 125.569 36.4792C125.569 36.6698 125.503 36.8312 125.371 36.9632C125.246 37.0952 125.092 37.1612 124.909 37.1612ZM125.393 38.1402V44.1682H124.392V38.1402H125.393ZM131.253 38.9652V42.5182C131.253 42.8115 131.315 43.0205 131.44 43.1452C131.564 43.2625 131.781 43.3212 132.089 43.3212H132.826V44.1682H131.924C131.366 44.1682 130.948 44.0398 130.67 43.7832C130.391 43.5265 130.252 43.1048 130.252 42.5182V38.9652H129.471V38.1402H130.252V36.6222H131.253V38.1402H132.826V38.9652H131.253ZM139.538 40.9232C139.538 41.1138 139.527 41.3155 139.505 41.5282H134.687C134.724 42.1222 134.926 42.5878 135.292 42.9252C135.666 43.2552 136.117 43.4202 136.645 43.4202C137.078 43.4202 137.437 43.3212 137.723 43.1232C138.017 42.9178 138.222 42.6465 138.339 42.3092H139.417C139.256 42.8885 138.933 43.3615 138.449 43.7282C137.965 44.0875 137.364 44.2672 136.645 44.2672C136.073 44.2672 135.56 44.1388 135.105 43.8822C134.658 43.6255 134.306 43.2625 134.049 42.7932C133.793 42.3165 133.664 41.7665 133.664 41.1432C133.664 40.5198 133.789 39.9735 134.038 39.5042C134.288 39.0348 134.636 38.6755 135.083 38.4262C135.538 38.1695 136.059 38.0412 136.645 38.0412C137.217 38.0412 137.723 38.1658 138.163 38.4152C138.603 38.6645 138.941 39.0092 139.175 39.4492C139.417 39.8818 139.538 40.3732 139.538 40.9232ZM138.504 40.7142C138.504 40.3328 138.42 40.0065 138.251 39.7352C138.083 39.4565 137.852 39.2475 137.558 39.1082C137.272 38.9615 136.953 38.8882 136.601 38.8882C136.095 38.8882 135.663 39.0495 135.303 39.3722C134.951 39.6948 134.75 40.1422 134.698 40.7142H138.504ZM144.006 44.1682L142.576 41.9242L141.201 44.1682H140.156L142.103 41.1762L140.156 38.1402H141.289L142.719 40.3732L144.083 38.1402H145.128L143.192 41.1212L145.139 44.1682H144.006ZM149.06 38.0302C149.794 38.0302 150.388 38.2538 150.842 38.7012C151.297 39.1412 151.524 39.7792 151.524 40.6152V44.1682H150.534V40.7582C150.534 40.1568 150.384 39.6985 150.083 39.3832C149.783 39.0605 149.372 38.8992 148.851 38.8992C148.323 38.8992 147.902 39.0642 147.586 39.3942C147.278 39.7242 147.124 40.2045 147.124 40.8352V44.1682H146.123V38.1402H147.124V38.9982C147.322 38.6902 147.59 38.4518 147.927 38.2832C148.272 38.1145 148.65 38.0302 149.06 38.0302ZM153.677 37.1612C153.486 37.1612 153.325 37.0952 153.193 36.9632C153.061 36.8312 152.995 36.6698 152.995 36.4792C152.995 36.2885 153.061 36.1272 153.193 35.9952C153.325 35.8632 153.486 35.7972 153.677 35.7972C153.86 35.7972 154.014 35.8632 154.139 35.9952C154.271 36.1272 154.337 36.2885 154.337 36.4792C154.337 36.6698 154.271 36.8312 154.139 36.9632C154.014 37.0952 153.86 37.1612 153.677 37.1612ZM154.161 38.1402V44.1682H153.16V38.1402H154.161ZM159.233 44.1682L156.868 41.5062V44.1682H155.867V36.0282H156.868V40.8132L159.189 38.1402H160.586L157.748 41.1432L160.597 44.1682H159.233ZM166.874 38.1402V44.1682H165.873V43.2772C165.682 43.5852 165.414 43.8272 165.07 44.0032C164.732 44.1718 164.358 44.2562 163.948 44.2562C163.478 44.2562 163.057 44.1608 162.683 43.9702C162.309 43.7722 162.012 43.4788 161.792 43.0902C161.579 42.7015 161.473 42.2285 161.473 41.6712V38.1402H162.463V41.5392C162.463 42.1332 162.613 42.5915 162.914 42.9142C163.214 43.2295 163.625 43.3872 164.146 43.3872C164.681 43.3872 165.103 43.2222 165.411 42.8922C165.719 42.5622 165.873 42.0818 165.873 41.4512V38.1402H166.874ZM175.813 38.0302C176.282 38.0302 176.7 38.1292 177.067 38.3272C177.433 38.5178 177.723 38.8075 177.936 39.1962C178.148 39.5848 178.255 40.0578 178.255 40.6152V44.1682H177.265V40.7582C177.265 40.1568 177.114 39.6985 176.814 39.3832C176.52 39.0605 176.121 38.8992 175.615 38.8992C175.094 38.8992 174.68 39.0678 174.372 39.4052C174.064 39.7352 173.91 40.2155 173.91 40.8462V44.1682H172.92V40.7582C172.92 40.1568 172.769 39.6985 172.469 39.3832C172.175 39.0605 171.776 38.8992 171.27 38.8992C170.749 38.8992 170.335 39.0678 170.027 39.4052C169.719 39.7352 169.565 40.2155 169.565 40.8462V44.1682H168.564V38.1402H169.565V39.0092C169.763 38.6938 170.027 38.4518 170.357 38.2832C170.694 38.1145 171.064 38.0302 171.468 38.0302C171.974 38.0302 172.421 38.1438 172.81 38.3712C173.198 38.5985 173.488 38.9322 173.679 39.3722C173.847 38.9468 174.126 38.6168 174.515 38.3822C174.903 38.1475 175.336 38.0302 175.813 38.0302ZM180.414 37.1612C180.223 37.1612 180.062 37.0952 179.93 36.9632C179.798 36.8312 179.732 36.6698 179.732 36.4792C179.732 36.2885 179.798 36.1272 179.93 35.9952C180.062 35.8632 180.223 35.7972 180.414 35.7972C180.597 35.7972 180.751 35.8632 180.876 35.9952C181.008 36.1272 181.074 36.2885 181.074 36.4792C181.074 36.6698 181.008 36.8312 180.876 36.9632C180.751 37.0952 180.597 37.1612 180.414 37.1612ZM180.898 38.1402V44.1682H179.897V38.1402H180.898Z" fill="#111F50"/>
</svg>
